<svg id="SvgjsSvg1001" xmlns="http://www.w3.org/2000/svg" version="1.1" xmlns:xlink="http://www.w3.org/1999/xlink" xmlns:svgjs="http://svgjs.com/svgjs"><defs id="SvgjsDefs1002"></defs><g id="SvgjsG1008" transform="matrix(1,0,0,1,0,0)"><svg xmlns="http://www.w3.org/2000/svg" viewBox="0 0 24 24" width="36" height="36"><path fill="#8a2be2" d="M12,2A10,10,0,1,0,22,12,10,10,0,0,0,12,2Zm3.21,11.79a1,1,0,0,1,0,1.42,1,1,0,0,1-1.42,0L12,13.41l-1.79,1.8a1,1,0,0,1-1.42,0,1,1,0,0,1,0-1.42L10.59,12l-1.8-1.79a1,1,0,0,1,1.42-1.42L12,10.59l1.79-1.8a1,1,0,0,1,1.42,1.42L13.41,12Z" class="color464646 svgShape"></path></svg></g></svg>