<svg id="SvgjsSvg1011" width="36" height="36" xmlns="http://www.w3.org/2000/svg" version="1.1" xmlns:xlink="http://www.w3.org/1999/xlink" xmlns:svgjs="http://svgjs.com/svgjs"><defs id="SvgjsDefs1012"></defs><g id="SvgjsG1013" transform="matrix(1,0,0,1,0,0)"><svg xmlns="http://www.w3.org/2000/svg" viewBox="0 0 24 24" width="288" height="288"><path d="M3,8H21a1,1,0,0,0,0-2H3A1,1,0,0,0,3,8Zm18,8H3a1,1,0,0,0,0,2H21a1,1,0,0,0,0-2Zm0-5H3a1,1,0,0,0,0,2H21a1,1,0,0,0,0-2Z" fill="#8a2be2" class="color000 svgShape"></path></svg></g></svg>