<svg id="SvgjsSvg1016" width="288" height="288" xmlns="http://www.w3.org/2000/svg" version="1.1" xmlns:xlink="http://www.w3.org/1999/xlink" xmlns:svgjs="http://svgjs.com/svgjs"><defs id="SvgjsDefs1017"></defs><g id="SvgjsG1018" transform="matrix(1,0,0,1,0,0)"><svg xmlns="http://www.w3.org/2000/svg" width="288" height="288" viewBox="0 0 21 20"><path fill="#8a2be2" fill-rule="evenodd" d="M60.85 51H57.7c-1.74 0-3.15 1.343-3.15 3v3c0 1.657 1.41 3 3.15 3h3.15c1.74 0 3.15-1.343 3.15-3v-3c0-1.657-1.41-3-3.15-3M49.3 51h-3.15C44.41 51 43 52.343 43 54v3c0 1.657 1.41 3 3.15 3h3.15c1.74 0 3.15-1.343 3.15-3v-3c0-1.657-1.41-3-3.15-3m11.55-11H57.7c-1.74 0-3.15 1.343-3.15 3v3c0 1.657 1.41 3 3.15 3h3.15c1.74 0 3.15-1.343 3.15-3v-3c0-1.657-1.41-3-3.15-3m-8.4 3v3c0 1.657-1.41 3-3.15 3h-3.15C44.41 49 43 47.657 43 46v-3c0-1.657 1.41-3 3.15-3h3.15c1.74 0 3.15 1.343 3.15 3" transform="translate(-43 -40)" class="color000 svgShape"></path></svg></g></svg>